HIERARCHY
ROOT root
{
	OFFSET 0.000000 0.000000 0.000000
	CHANNELS 6 Xposition Yposition Zposition Zrotation Yrotation Xrotation
	JOINT lhip
	{
		OFFSET 0.058581 -0.082280 -0.017664
		CHANNELS 3 Zrotation Yrotation Xrotation
		JOINT lknee
		{
			OFFSET 0.043451 -0.386469 0.008037
			CHANNELS 3 Zrotation Yrotation Xrotation
			JOINT lankle
			{
				OFFSET -0.014790 -0.426874 -0.037428
				CHANNELS 3 Zrotation Yrotation Xrotation
				JOINT ltoe
				{
					OFFSET 0.041054 -0.060286 0.122042
					CHANNELS 3 Zrotation Yrotation Xrotation
					End Site
					{
						OFFSET 0.000000 0.000000 0.000000
					}
				}
			}
		}
	}
	JOINT rhip
	{
		OFFSET -0.060310 -0.090513 -0.013543
		CHANNELS 3 Zrotation Yrotation Xrotation
		JOINT rknee
		{
			OFFSET -0.043257 -0.383688 -0.004843
			CHANNELS 3 Zrotation Yrotation Xrotation
			JOINT rankle
			{
				OFFSET 0.019056 -0.420046 -0.034562
				CHANNELS 3 Zrotation Yrotation Xrotation
				JOINT rtoe
				{
					OFFSET -0.034840 -0.062106 0.130323
					CHANNELS 3 Zrotation Yrotation Xrotation
					End Site
					{
						OFFSET 0.000000 0.000000 0.000000
					}
				}
			}
		}
	}
	JOINT lowerback
	{
		OFFSET 0.004439 0.124404 -0.038385
		CHANNELS 3 Zrotation Yrotation Xrotation
		JOINT upperback
		{
			OFFSET 0.004488 0.137956 0.026820
			CHANNELS 3 Zrotation Yrotation Xrotation
			JOINT chest
			{
				OFFSET -0.002265 0.056032 0.002855
				CHANNELS 3 Zrotation Yrotation Xrotation
				JOINT lowerneck
				{
					OFFSET -0.013390 0.211636 -0.033468
					CHANNELS 3 Zrotation Yrotation Xrotation
					JOINT upperneck
					{
						OFFSET 0.010113 0.088937 0.050410
						CHANNELS 3 Zrotation Yrotation Xrotation
						End Site
						{
							OFFSET 0.000000 0.000000 0.000000
						}
					}
				}
				JOINT lclavicle
				{
					OFFSET 0.071702 0.114000 -0.018898
					CHANNELS 3 Zrotation Yrotation Xrotation
					JOINT lshoulder
					{
						OFFSET 0.122921 0.045205 -0.019046
						CHANNELS 3 Zrotation Yrotation Xrotation
						JOINT lelbow
						{
							OFFSET 0.255332 -0.015649 -0.022946
							CHANNELS 3 Zrotation Yrotation Xrotation
							JOINT lwrist
							{
								OFFSET 0.265709 0.012698 -0.007375
								CHANNELS 3 Zrotation Yrotation Xrotation
								End Site
								{
									OFFSET 0.000000 0.000000 0.000000
								}
							}
						}
					}
				}
				JOINT rclavicle
				{
					OFFSET -0.082954 0.112472 -0.023707
					CHANNELS 3 Zrotation Yrotation Xrotation
					JOINT rshoulder
					{
						OFFSET -0.113228 0.046853 -0.008472
						CHANNELS 3 Zrotation Yrotation Xrotation
						JOINT relbow
						{
							OFFSET -0.260127 -0.014369 -0.031269
							CHANNELS 3 Zrotation Yrotation Xrotation
							JOINT rwrist
							{
								OFFSET -0.269108 0.006794 -0.006027
								CHANNELS 3 Zrotation Yrotation Xrotation
								End Site
								{
									OFFSET 0.000000 0.000000 0.000000
								}
							}
						}
					}
				}
			}
		}
	}
}
MOTION
Frames: 8
Frame Time: 0.033333
0.617895 0.284490 1.025206 78.237602 -3.890676 95.734480 10.049924 -9.184924 -43.650586 -0.250765 23.365699 71.149478 3.861088 4.392300 -2.100739 0.000000 -0.000000 0.000000 -7.702338 -6.838186 16.811923 -3.165050 10.567946 12.727839 13.832839 -3.323463 16.990774 0.000000 -0.000000 0.000000 -4.207076 16.853435 11.734925 0.623770 -2.542343 -0.641258 -1.805392 2.189071 2.526153 0.951700 -3.207232 -16.171987 0.162691 3.733564 2.472646 -25.316274 14.673431 2.724328 -53.574393 10.804987 15.007966 -143.072205 -71.191651 157.208188 28.832294 -8.325518 -24.155692 26.252589 5.759299 -4.361241 49.754380 23.640788 20.180143 -112.685296 69.636837 -101.939345 -18.076563 18.068837 3.989815 
0.710275 0.282063 1.036950 78.774084 -3.703962 96.819813 10.391158 -9.668549 -44.355635 -5.073844 19.379003 54.933968 4.742535 4.085206 -2.120866 0.000000 -0.000000 0.000000 -8.626130 -8.005027 20.010662 -3.883973 13.827890 10.803984 10.505820 -5.646635 26.092460 0.000000 -0.000000 0.000000 -4.348346 17.555952 9.736610 0.163991 -2.726043 -0.804796 -1.869956 2.114471 2.817544 -0.009651 -5.062004 -15.965315 1.627502 4.042736 2.390799 -24.082219 15.695563 4.022583 -54.878696 11.155661 14.005320 -142.836925 -69.747707 157.315794 30.382766 -5.713294 -26.087693 25.111114 5.307716 -4.202542 49.351951 23.882642 20.148216 -119.764683 71.227587 -109.159204 -16.294713 18.171992 3.421043 
0.864108 0.279329 1.047149 81.162123 -3.474776 96.094838 7.640289 -11.354106 -39.167532 -6.342246 8.496898 28.429856 3.081393 6.639841 -0.729492 0.000000 -0.000000 0.000000 -4.856269 -5.087059 22.665402 -4.348401 15.813252 23.404860 7.612935 -7.337066 18.392340 0.000000 -0.000000 0.000000 -4.416448 14.795921 9.357482 -0.376140 -1.685952 0.831977 -1.623505 2.402937 2.040502 0.024814 -4.981319 -17.461721 1.085952 2.926627 2.523785 -25.428494 15.673282 2.726582 -55.000767 12.851620 14.321720 -150.182726 -68.668516 167.240049 27.809777 -7.702926 -25.088448 24.450677 5.289014 -5.165000 50.180380 19.712745 21.638239 -133.626120 71.386434 -120.242169 -12.342958 19.390698 5.255331 
0.989223 0.279785 1.043609 84.245434 -4.184018 93.891149 1.818460 -11.446844 -31.256551 -3.094733 4.600133 13.101384 0.263808 8.579869 -0.751772 0.000000 -0.000000 0.000000 -2.322466 -3.385567 23.529906 -4.754135 10.923324 37.567723 10.250530 -8.596861 20.829046 0.000000 -0.000000 0.000000 -5.456140 11.498855 10.519238 -0.493586 -1.099508 2.049795 -1.202847 3.094685 2.089734 0.768344 -4.486297 -17.638479 0.406015 1.928234 0.563468 -26.988008 15.045239 1.142876 -54.971253 10.440413 15.326976 -153.011214 -68.929860 170.597747 27.242822 -9.154434 -22.755164 25.643646 4.551496 -5.250599 48.559583 17.181075 21.483050 -136.462879 73.708905 -123.117861 -16.657691 21.620453 5.038641 
1.112358 0.280812 1.027039 86.596198 -4.424750 92.824723 -2.513420 -9.710223 -26.341264 -2.346341 7.067514 8.962706 0.143806 10.185993 -1.001385 0.000000 -0.000000 0.000000 -1.535280 -3.837707 19.882160 -5.205732 7.616370 54.446668 10.743261 -9.152939 24.743523 0.000000 -0.000000 0.000000 -5.547323 9.278636 10.393839 -0.615891 -1.187624 2.739516 -1.542835 2.680374 2.185233 0.898509 -5.146955 -16.900320 1.513405 2.758373 -0.193093 -28.443912 12.788656 0.263560 -54.934447 7.927968 16.501989 -159.789551 -69.339565 175.624824 27.123464 -8.228041 -21.112261 26.145420 3.495132 -5.348981 50.225857 11.543902 23.068909 -131.547724 75.920561 -119.681974 -16.362600 20.344683 4.830970 
1.233638 0.281460 0.998951 88.207197 -4.912521 92.484590 -3.487023 -12.229899 -22.836170 -5.853594 3.672204 12.952106 8.741213 10.500462 -6.703692 0.000000 -0.000000 0.000000 -1.796968 -2.095606 13.296167 -3.493309 3.814655 73.129709 8.794087 -11.608546 22.549026 0.000000 -0.000000 0.000000 -6.447433 7.356362 10.493494 -0.213046 -1.129493 1.257761 -1.917646 1.382151 2.415908 1.191766 -5.613612 -15.332067 1.748304 4.154824 0.679846 -29.918161 10.488932 0.495519 -54.507306 3.422131 17.192863 -167.532144 -68.910501 -177.641179 25.429073 -9.773212 -21.197685 27.064943 1.939469 -4.255583 51.649513 6.567760 23.908062 -118.103206 78.062553 -106.789383 -14.671160 19.368915 3.421335 
1.350750 0.282640 0.965117 90.120790 -4.543693 90.260957 -5.273414 -11.191137 -21.461243 -8.703433 1.761622 29.138101 18.062712 13.702497 -22.359865 0.000000 -0.000000 0.000000 -2.364722 -1.574325 7.325269 -3.821080 0.755597 89.518263 5.510641 -15.630816 19.434345 0.000000 -0.000000 0.000000 -6.272788 5.137702 14.048660 0.106308 -1.469402 -1.284470 -1.864718 0.628714 4.330440 1.513435 -6.181375 -17.133960 2.025891 5.571197 1.815962 -31.009674 5.852364 -0.768753 -54.376943 -2.923023 17.934036 -172.481775 -68.206843 -172.965314 29.432265 -8.184780 -19.866883 27.751159 0.788529 -4.739357 52.583014 0.475708 24.233774 -102.807019 77.965297 -91.613845 -14.986661 20.621042 5.966185 
1.462274 0.284721 0.944766 93.024023 -4.272745 87.470450 -7.899619 -11.683721 -14.842468 -7.872595 1.690934 37.012386 18.716009 17.034043 -31.090950 0.000000 -0.000000 0.000000 -2.662314 -0.790848 -1.743051 -3.851293 -1.245488 102.084575 2.806893 -18.276682 19.462316 0.000000 -0.000000 0.000000 -5.906560 3.247219 19.459817 0.739362 -2.725799 -1.778708 -2.045902 -0.737293 4.751757 1.238816 -4.705222 -19.813392 2.652272 4.904415 0.936936 -31.839725 0.428210 -2.628564 -53.117217 -11.520244 19.027830 179.865172 -68.186301 -166.849416 29.064744 -10.387686 -17.032365 29.468343 -0.345085 -5.116652 52.821610 -4.903753 24.719652 -90.959346 75.290398 -78.785311 -14.174638 20.857621 10.425327 
